<svg xmlns="http://www.w3.org/2000/svg" viewBox="0 0 512 493.629">
  <g id="add" transform="translate(0 -9.686)">
    <path id="Path_1" data-name="Path 1" d="M246.8,10.6a4.116,4.116,0,0,1,4.4-.5A3.8,3.8,0,0,1,246.8,10.6Z" fill="#fff" opacity="0.54"/>
    <path id="Path_2" data-name="Path 2" d="M251.2,10.1h9.6a3.777,3.777,0,0,0,4.5.5c8.5,2.5,17.4,5,24.5,10.6,9.3,7.2,15.7,17.6,19.3,28.7,8.9,28,18.1,56,26.9,84,2.2,6.2,3.7,12.9,8,18.1,4.4,4.5,11.3,3.5,17,4,33.6.2,67.2-.2,100.8.1a3.8,3.8,0,0,0,4.4.7c12.4,2.5,24.5,8.4,32.5,18.5,7,7.7,10.2,17.8,12.8,27.7a2.5,2.5,0,0,0,.5,4.1v9.8a2.617,2.617,0,0,0-.6,4.1,57.824,57.824,0,0,1-20.5,33.9c-18.7,14.1-38,27.3-56.6,41.4-7,5.5-18.3,6.8-25.2.6-11-6.8-10.6-24.8-.1-31.8,17.7-13.5,36.1-25.9,53.9-39.2,3.6-3.1,8.2-6.2,8.6-11.4,2.4-9.2-5.7-19.6-15.5-18.3-35.6-.7-71.2.2-106.8-.3a3.63,3.63,0,0,0-4.4-.6c-20.1-3.7-37.7-18.9-43.4-38.6Q287,112,272.7,67.3c-2.2-6.6-4.9-16-13.2-16.9-7.9-2.3-16.3,3-18.1,10.9-9.2,27.1-17.3,54.5-26.5,81.6-3.5,11.8-6.7,24.4-15.3,33.8-7.9,10.1-20,16-32.4,18.6a3.63,3.63,0,0,0-4.4.6c-36.8.6-73.8-.7-110.6.5-9.4,1.2-14.8,13-10.9,21.3,3.6,5.7,9.4,9.4,14.8,13.3,21.9,15.6,43.5,31.7,65.5,47.4,8.3,6.2,17.2,12.4,22.3,21.7,4,6.2,5.8,13.5,7.4,20.6-1.5,3-1.3,5.5.4,7.5v.6c-1.6,2.7-1.7,5.1-.2,7.4-3.2,14.7-8.9,28.6-13.3,42.9-4.6,15.3-9.9,30.3-14.8,45.5-2.8,9.3-7.5,18.6-5.7,28.7,2.8,7.5,12.6,11.6,19.9,8.3,5.6-3.2,10.8-7.2,16-11q35.55-26.1,71.2-51.7a54.9,54.9,0,0,1,23.9-9.3c4.8-.1,9.7-.1,14.5.2,12.5,1,23.1,7.9,32.7,15.3,24.8,18.2,49.9,36.1,74.7,54.4a17.065,17.065,0,0,0,11.2,3.1c8.8-.7,16.2-10.3,12.3-19.1-5.6-21.5-13.6-42.3-20.2-63.6-1.7-7.1-3.5-16,2.2-21.8,2.4-4,6.8-5.8,10.8-7.5,1.4.4,3.5.7,4.1-1.1,7.6,1.4,15.8,4.9,19,12.5,7,18.3,11.8,37.3,18.4,55.7,6,16.1,10.3,35,2.5,51.3-7.1,17.3-23.4,29.8-41.7,33.3a3.63,3.63,0,0,0-4.4.6h-9.6a3.629,3.629,0,0,0-4.4-.5c-9.9-2.9-19.5-7.1-27.7-13.5-22.2-16.1-44.4-32.3-66.6-48.4-5.4-3.6-10.2-8.4-16.4-10.7a57.534,57.534,0,0,0-8.3-.2c-5.8,2.4-10.6,6.9-15.7,10.4-22.2,16.2-44.5,32.2-66.5,48.5-8.5,6.4-17.9,11.8-28.4,13.8a3.649,3.649,0,0,0-4.4.6h-9.6a3.63,3.63,0,0,0-4.4-.6c-20.6-3.8-38.7-19.6-44.2-39.9-2.4-11-2.3-22.7,1.3-33.4,10.5-32,21.1-64,31.2-96.1,1-1,2.1-2.5,1.3-3.9-2-6.3-5.4-12.6-11.3-16.1C77.9,296.5,55.2,279.4,31.9,263c-7.6-5.5-15.4-11.2-21.3-18.6C5.3,237.6,2.9,229.2.5,221a2.5,2.5,0,0,0-.5-4.1v-9.8A2.547,2.547,0,0,0,.5,203c2.7-10.3,6.2-21,13.8-28.8,8-9.3,19.5-14.9,31.5-17.6a3.644,3.644,0,0,0,4.4-.5c35.2-.5,70.5.4,105.8-.3,6.7.6,13.8-3.3,15.9-9.9,8.6-25.1,16.1-50.4,24.5-75.6,4.9-14.2,7.8-30.1,18.1-41.7,8.1-9.8,20.2-15.1,32.3-18A3.8,3.8,0,0,0,251.2,10.1Z" fill="#fff"/>
    <path id="Path_3" data-name="Path 3" d="M260.8,10.1a4.313,4.313,0,0,1,4.5.5A3.777,3.777,0,0,1,260.8,10.1Z" fill="#fff" opacity="0.54"/>
    <path id="Path_4" data-name="Path 4" d="M45.8,156.6a4.116,4.116,0,0,1,4.4-.5A3.644,3.644,0,0,1,45.8,156.6Z" fill="#fff" opacity="0.53"/>
    <path id="Path_5" data-name="Path 5" d="M461.8,156.1a3.968,3.968,0,0,1,4.4.7A3.8,3.8,0,0,1,461.8,156.1Z" fill="#fff" opacity="0.53"/>
    <path id="Path_6" data-name="Path 6" d="M236.2,212.1c.4-10.1,9.8-18.6,19.8-18,10-.6,19.5,7.9,19.7,18,.8,14,.2,27.9.3,41.9,13.3.1,26.7-.3,40,.2A18.639,18.639,0,0,1,335,268c3.7,10.4-3.5,23.8-14.7,25.3-14.7,1.4-29.5.5-44.3.7-.1,13.7.3,27.4-.1,41-.6,8.3-6.3,16.6-14.8,18.2-11.1,3.4-24.7-5.2-24.8-17.3-.8-14-.2-27.9-.3-41.9-13.7-.1-27.4.3-41-.1-7.7-.6-15.6-5.5-17.7-13.2-4.1-10.5,2.2-23.5,13.3-26.1,15.1-1.3,30.3-.4,45.4-.6C236.2,240,235.5,226,236.2,212.1Z" fill="#fff"/>
    <path id="Path_7" data-name="Path 7" d="M162.8,195.9a3.63,3.63,0,0,1,4.4-.6A3.945,3.945,0,0,1,162.8,195.9Z" fill="#fff" opacity="0.43"/>
    <path id="Path_8" data-name="Path 8" d="M344.8,195.3a3.63,3.63,0,0,1,4.4.6A3.946,3.946,0,0,1,344.8,195.3Z" fill="#fff" opacity="0.43"/>
    <path id="Path_9" data-name="Path 9" d="M0,203.5l.5-.5a2.547,2.547,0,0,1-.5,4.1Z" fill="#fff" opacity="0.53"/>
    <path id="Path_10" data-name="Path 10" d="M511.5,203l.5.5v3.6A2.5,2.5,0,0,1,511.5,203Z" fill="#fff" opacity="0.51"/>
    <path id="Path_11" data-name="Path 11" d="M0,216.9A2.5,2.5,0,0,1,.5,221l-.5-.4Z" fill="#fff" opacity="0.51"/>
    <path id="Path_12" data-name="Path 12" d="M511.4,221a2.617,2.617,0,0,1,.6-4.1v3.6Z" fill="#fff" opacity="0.49"/>
    <path id="Path_13" data-name="Path 13" d="M151.3,320.7c1.7,2.1,1.8,4.6.4,7.5C150,326.2,149.8,323.7,151.3,320.7Z" fill="#fff" opacity="0.64"/>
    <path id="Path_14" data-name="Path 14" d="M111.1,332.9c-.2-1.3-.3-3.4,1.3-3.9C113.2,330.4,112.1,331.9,111.1,332.9Z" fill="#fff" opacity="0.42"/>
    <path id="Path_15" data-name="Path 15" d="M151.5,336.2c-1.5-2.3-1.4-4.7.2-7.4C153.3,331,153.2,333.5,151.5,336.2Z" fill="#fff" opacity="0.64"/>
    <path id="Path_16" data-name="Path 16" d="M386.9,350.6c1.1-.9,2.6-1.7,4.1-1.1C390.4,351.3,388.3,351,386.9,350.6Z" fill="#fff" opacity="0.6"/>
    <path id="Path_17" data-name="Path 17" d="M248.7,389.6a87.781,87.781,0,0,1,14.5.2C258.4,389.5,253.5,389.5,248.7,389.6Z" fill="#fff" opacity="0.65"/>
    <path id="Path_18" data-name="Path 18" d="M251.8,429.6a57.534,57.534,0,0,1,8.3.2C257.4,429.6,254.6,429.6,251.8,429.6Z" fill="#fff" opacity="0.38"/>
    <path id="Path_19" data-name="Path 19" d="M122.8,502.3a3.63,3.63,0,0,1,4.4.6A3.945,3.945,0,0,1,122.8,502.3Z" fill="#fff" opacity="0.44"/>
    <path id="Path_20" data-name="Path 20" d="M136.8,502.9a3.649,3.649,0,0,1,4.4-.6A3.945,3.945,0,0,1,136.8,502.9Z" fill="#fff" opacity="0.42"/>
    <path id="Path_21" data-name="Path 21" d="M370.8,502.4a3.629,3.629,0,0,1,4.4.5A4.116,4.116,0,0,1,370.8,502.4Z" fill="#fff" opacity="0.42"/>
    <path id="Path_22" data-name="Path 22" d="M384.8,502.9a3.63,3.63,0,0,1,4.4-.6A3.946,3.946,0,0,1,384.8,502.9Z" fill="#fff" opacity="0.44"/>
  </g>
</svg>
