<svg id="settings" xmlns="http://www.w3.org/2000/svg" viewBox="0 0 512 512">
  <path id="Path_71" data-name="Path 71" d="M223.3,0h66.5c13,5.4,12.2,21.9,16,33.2,1.2,5.5,8.2,5.2,12.2,7,20.2,5.3,39.1,14.4,57.1,24.8,8.7-4.7,16.8-10.6,26.1-14.3,1.6-.1,5-.1,6.7-.2,12.4,7.5,21.6,18.8,31.9,28.7,7.9,7.7,15.7,15.6,21.9,24.7-.1,1.7-.4,5.2-.5,6.9-3.1,8.2-8.4,15.3-12.5,22.9-2.6,4.3,1.3,8.7,3.1,12.4,9.8,16.4,16.6,34.4,21.3,52.8.9,2.4,1.5,5.6,4.1,6.7,8.6,2.7,17.6,4.1,26.1,7.2,4.5,1.8,7,6.2,8.7,10.5v66.5c-5.4,13-21.9,12.2-33.2,16-5.5,1.2-5.2,8.2-7,12.2-5.3,20.2-14.4,39.1-24.8,57.1,4.7,8.7,10.6,16.8,14.3,26.1.1,1.6.1,5,.2,6.7-7.5,12.4-18.8,21.6-28.7,31.9-7.7,7.9-15.6,15.7-24.7,21.9-1.7-.1-5.2-.4-6.9-.5-8.2-3.1-15.3-8.4-22.9-12.5-4.3-2.6-8.7,1.3-12.4,3.1-16.4,9.8-34.4,16.6-52.8,21.3-2.6.9-6.3,1.7-6.9,4.8-3.7,11.8-3.3,28.5-16.4,34.1H223.3c-9.4-2.5-12.9-12.5-14.1-21.1-1.9-6.5-1.6-17.7-11.2-17.9-23.5-6-45.4-16.7-66-29.3-18.7,18.1-36.7,36.8-55.3,55.1-6.6,6.5-15.3,9.9-23.9,12.9-1-2-3.7-1.2-4.8.3H42c-1.1-1.5-3.8-2.3-4.8-.3-8.1-3.2-16.8-5.5-22.9-12.1C6.7,493,3,483.3.3,473.8c2-1.1,1.2-3.7-.3-4.8v-3.7c.3-1.6.8-4.8,1-6.4,1.9-9,6-17.7,12.8-24.1,17.9-18.5,36.6-36.2,54.5-54.8-9.6-16.4-19.1-33.1-24.7-51.4-2.1-6.1-3.8-12.4-5.9-18.6-.5-1.4-1.2-3.1-2.9-3.6-8.6-2.7-17.6-3.9-26.1-7.2-4.1-1.8-6.7-5.6-8.7-9.5V223.3c1.6-4.1,3.9-8.2,8-10.2,8.6-3.6,18-4.6,26.8-7.5,2.6-1.1,3.2-4.3,4.1-6.7,4.7-18.4,11.5-36.4,21.3-52.8,1.8-3.7,5.7-8.1,3.1-12.3-4.2-7.7-9.2-14.9-12.7-22.9,0-1.7.2-5,.2-6.7,3.9-8.1,10.6-14.3,16.9-20.5,11.8-11.4,22.6-24,36.2-33.4,1.7.1,5.2.4,6.9.5,9.4,3.4,17.4,9.5,26.1,14.2C156,53.7,176.5,44.5,198,39c9.6-.2,9.3-11.4,11.2-17.9,1.2-8.6,4.7-18.6,14.1-21.1m14.6,30c-3,9.9-3.8,20.7-9.1,29.8-7.5,6.3-17.9,6.4-26.9,9A187.482,187.482,0,0,0,151,92c-5.1,2.8-10.2,7.9-16.7,5.7-8.9-3.3-16.4-9.1-24.5-13.8C101,92.3,92.3,101,83.9,109.8,89,120,99.3,129.1,97.4,141.4c-3.7,8-9.1,15-13.2,22.7a182.921,182.921,0,0,0-18.1,49c-1.4,5.4-2.3,11.5-6.3,15.7-8.9,5.7-19.9,6.1-29.8,9,0,12.1-.1,24.2,0,36.3,8.6,2.4,17.5,3.9,26,7,6.3,1.9,7.9,9,9.4,14.5a193.87,193.87,0,0,0,24.8,62.6c7.3-7,14.4-14.3,21.6-21.4a195.835,195.835,0,0,1-19.6-58c1.7-.5,1.5-3.7-.4-3.5,0-1.3,0-2.6-.1-3.9,0-3.3-.2-6.7-.4-9.9v.7c-.1-3.1-.1-6.3,0-9.4v.7c.1-3,.4-8.8.5-11.8.1-2,.2-4,.1-6.1,1.8.3,2.1-2.9.5-3.4a68.577,68.577,0,0,0,2-7.8c7.7-44.6,36.5-84.5,74.6-108.4,19-12.4,41-19.4,63.2-23.6.5,1.7,3.7,1.3,3.4-.6,1.7-.1,3.4-.2,5-.4,1.1,1.8,5.5,2,5.7-.4,5.5-.1,11,.2,16.5.4,2.8.2,5.7.4,8.5.5a43.388,43.388,0,0,0,5.1,0c-.3,1.8,2.9,2.1,3.4.5,9.4,2.7,19.4,3.4,28.5,7.1,36.8,12,68.5,37.7,88.6,70.6,12,18.8,18.4,40.4,22.7,62.1-1.6.5-1.3,3.6.5,3.4a43.41,43.41,0,0,0,.1,5.1c.1,2.8.2,5.7.4,8.5.3,4.9.1,9.7,0,14.6-.2,2.8-.4,5.7-.5,8.5v4c-1.9-.2-2.1,3-.4,3.5-6.4,38.5-25.7,74.9-55.5,100.4-23.6,21.1-53.5,34.3-84.6,39.5-.6-1.8-4.2-1.6-4.1.5-1.4,0-2.8,0-4.1.1-3.7.1-7.3.2-10.9.5h.7c-3.3.1-6.7-.1-10-.1-3.1-.3-6.3-.4-9.5-.5a41.727,41.727,0,0,0-5-.1c.2-1.9-3-2.1-3.5-.4a195.63,195.63,0,0,1-58-19.5c-7.1,7.2-14.3,14.3-21.4,21.4a188.5,188.5,0,0,0,59.3,24.3c5.1,1.5,11,2.2,15.2,5.8,6.3,8.9,6.5,20.2,9.5,30.3h36.3c2.4-8.6,3.9-17.5,7-26,2.1-6.9,10.3-8.2,16.4-9.7a190.2,190.2,0,0,0,52.9-19.9c8-4.7,15.8-10.2,25-12.5-.1,1.6,2.8,1.9,3.3.4,8,4.3,15.8,9,23.5,13.8,8.8-8.4,17.4-17.1,25.9-25.9-4.8-7.7-9.4-15.5-13.7-23.5,1.4-.5,1.1-3.5-.5-3.3a63.527,63.527,0,0,1,8.4-18.1,185.363,185.363,0,0,0,24-59.7c1.7-6,2.7-14.4,9.7-16.5,8.4-3.2,17.4-4.4,26-7V237.9c-8.6-2.4-17.5-3.9-26-7-6-1.8-7.7-8.4-9.2-13.7a189.359,189.359,0,0,0-19-53.1c-4.1-8-9.9-15.1-13.5-23.3-.8-12.1,8.6-21,13.8-31-8.4-8.8-17.1-17.4-25.9-25.9-7.7,4.8-15.6,9.4-23.5,13.7-.6-1.4-3.5-1-3.3.7-9.5-1.6-16.8-8.4-25-12.7-15.4-8.5-31.8-15.3-49.1-18.8-6.2-1.5-13.2-2.6-18.1-7-5.7-8.9-6.1-19.9-9-29.8-12.1,0-24.2-.1-36.3,0m6.6,92a38.046,38.046,0,0,0-5.9.6c-.6-1.8-4.3-1.6-4.1.6-55.8,7.5-103.7,55.4-111.3,111.2-1.9-.3-2.3,2.9-.6,3.4a27.678,27.678,0,0,0-1,5c-.2,2.8-.4,5.6-.5,8.5,0,2.4,0,4.9.2,7.4.1,3.3.2,6.5.5,9.8l-.1-.7a32.04,32.04,0,0,0,.9,5.4c-1.7.5-1.4,3.7.5,3.5.8,13.1,6,25.4,11,37.5,7.8-7.4,15.2-15.1,22.9-22.6-2.1-8-4.7-15.9-5.3-24.3.3-7.2.1-14.4.1-21.6,0-1.7.1-3.4,0-5.1,1.8.2,2.2-2.9.5-3.4,1.7-4.9,2.7-9.9,4.2-14.9,12.4-38,48.3-66.8,88.2-70.9.6,2,4.8,1.8,4.7-.5,4.7,0,9.4.1,14.2,0-.2,2,3.4,2.2,4,.5,11.8,2.6,24,4.6,34.7,10.4,3.8,2,5.4,6.2,7.4,9.8-1.6,1.2-1.7,4.5,0,5.7a19.612,19.612,0,0,1-4.9,8.5c-11.6,11.8-23.6,23.1-35,35-2.6,3.3-6.6,6.5-6.8,11-2.2.2-2.3,5.2,0,5.4-.3,6.2,5.7,11.9,11.8,11.9.2,2.2,5.3,2.1,5.4-.1,4.3-.3,7.6-3.4,10.6-6.2,10-9.9,19.9-20.1,29.9-30.1,4.1-4.1,8.3-8.4,13.8-10.5,1.2,1.7,4.5,1.9,5.8.2,3.2,1.2,6.7,2.5,8.5,5.8,7.6,10.5,8.8,23.9,11.8,36.2-1.7.6-1.6,4.2.5,4v13.3c-2.3.3-2.4,4.6-.5,5.5a158.324,158.324,0,0,1-4.8,21.7c-11.6,36.1-43.9,63.8-81,70.8-.5-1.7-3.7-1.4-3.4.5a43.385,43.385,0,0,0-5.1,0c-6.9-.2-13.8-.1-20.6,0h-4.1c.2-1.8-2.9-2.1-3.4-.5-5.7-1.8-11.5-3.1-17.3-4.8-7.9,7.4-15.6,15.1-23.1,23,12.1,5,24.4,10.4,37.6,11-.3,1.8,2.9,2.2,3.4.5a20.988,20.988,0,0,0,5,.9c3.1.2,6.3.3,9.5.5,2.4.1,4.9.1,7.4,0,2.8,0,5.7-.2,8.5-.4a40.134,40.134,0,0,0,5-.9c.5,1.6,3.7,1.3,3.5-.5,7.6,0,14.8-3,22-5.3,37.3-12.8,68.2-42.8,82.4-79.6,3-8.6,6.6-17.3,6.9-26.6,2.1.1,2.2-3.5.4-4.1a58.952,58.952,0,0,0,.6-5.9c2.1.1,2.2-3.5.4-4.1a41.665,41.665,0,0,0,.4-6.1c-.1-4.8-.4-9.7-.6-14.5a25.7,25.7,0,0,0-.7-4c1.6-.5,1.2-3.7-.6-3.5-7.4-59.3-60.3-108.6-119.7-113.5-4.8-.4-9.7-.5-14.5-.7a31.4,31.4,0,0,0-6.1.5c-.6-1.8-4.2-1.7-4.1.4m2,60c-33.2,2.9-62.3,32.2-64.4,65.5-2.2-.2-2.3,3.5-.5,4.1a29.106,29.106,0,0,0-.3,5.1c-.1,3.1-.3,6.2-.4,9.3H182c.7,9.3,4.6,17.8,7.8,26.5-1.9.8-1.9,4.2,0,5a21.882,21.882,0,0,1-5.5,8.8Q111.4,378.9,38.7,451.7c-3.5,3.6-7.1,7.5-8.6,12.5-2,9.7,7.9,19.7,17.7,17.7,8.2-2.8,13.5-9.9,19.5-15.6q63.6-63.9,127.4-127.6c6.1-6,11.8-12.9,19.7-16.6.7,1.9,4,2,5,.3,8.8,2.6,17.3,6.7,26.4,7.9,3.2.2,6.3.3,9.5.5a21.948,21.948,0,0,0,5.1-.4c.6,1.8,4.3,1.7,4.1-.4,17.1-.8,33.1-9.6,45-21.5,11-12,20-27.3,20.5-44,2.1.2,2.3-3.5.4-4.1.7-3.3.2-6.6-.2-9.9,1.7-.5,1.9-4-.1-4.1-15,11.7-26,31-46.8,32.9-3.8-.1-7.7-.1-11.6,0-19.9-2-36.9-19.2-38.9-39,0-3.5-.1-7.1-.1-10.6,1.2-21.1,20.8-32.6,32.7-47.6-.4-2.3-4.6-2.5-5.6-.4a47.131,47.131,0,0,0-9.2,0C250,179.8,246.3,179.9,246.5,182Z" fill="#fff"/>
  <path id="Path_72" data-name="Path 72" d="M103.9,50.3c.5-.4,1.6-1.2,2.1-1.6,1.2.5,3.6,1.6,4.8,2.1C109.1,50.7,105.6,50.4,103.9,50.3Z" fill="#fff" opacity="0.65"/>
  <path id="Path_73" data-name="Path 73" d="M401.2,50.7c.4-.5,1.4-1.4,1.9-1.9,1.2.4,3.6,1.3,4.8,1.7C406.2,50.6,402.8,50.6,401.2,50.7Z" fill="#fff" opacity="0.65"/>
  <path id="Path_74" data-name="Path 74" d="M240.6,91.4a54.586,54.586,0,0,1,5.7-.4C246.1,93.4,241.7,93.2,240.6,91.4Z" fill="#fff" opacity="0.48"/>
  <path id="Path_75" data-name="Path 75" d="M262.8,91.4c2.8.2,5.6.3,8.5.5C268.5,91.8,265.6,91.6,262.8,91.4Z" fill="#fff" opacity="0.58"/>
  <path id="Path_76" data-name="Path 76" d="M232.2,92.4a8.159,8.159,0,0,1,3.4-.6C235.9,93.7,232.7,94.1,232.2,92.4Z" fill="#fff" opacity="0.5"/>
  <path id="Path_77" data-name="Path 77" d="M276.4,91.9a5.811,5.811,0,0,1,3.4.5C279.3,94,276.1,93.7,276.4,91.9Z" fill="#fff" opacity="0.54"/>
  <path id="Path_78" data-name="Path 78" d="M375.4,98.3c-.2-1.7,2.7-2.1,3.3-.7A3.662,3.662,0,0,1,375.4,98.3Z" fill="#fff" opacity="0.62"/>
  <path id="Path_79" data-name="Path 79" d="M48.7,108.8c.5-1.2,1.6-3.5,2.1-4.6,0,1.7-.2,5-.2,6.7C50.1,110.4,49.1,109.3,48.7,108.8Z" fill="#fff" opacity="0.66"/>
  <path id="Path_80" data-name="Path 80" d="M461.7,103.9c.4.6,1.2,1.6,1.6,2.2-.5,1.2-1.6,3.5-2.1,4.7C461.3,109.1,461.6,105.6,461.7,103.9Z" fill="#fff" opacity="0.66"/>
  <path id="Path_81" data-name="Path 81" d="M244.5,122c-.1-2.1,3.5-2.2,4.1-.4A13.945,13.945,0,0,1,244.5,122Z" fill="#fff" opacity="0.51"/>
  <path id="Path_82" data-name="Path 82" d="M254.7,121.1c4.8.2,9.7.3,14.5.7C264.4,121.5,259.5,121.3,254.7,121.1Z" fill="#fff" opacity="0.35"/>
  <path id="Path_83" data-name="Path 83" d="M234.5,123.2c-.2-2.2,3.5-2.4,4.1-.6A26.985,26.985,0,0,1,234.5,123.2Z" fill="#fff" opacity="0.47"/>
  <path id="Path_84" data-name="Path 84" d="M244.7,151.4c1.2-.1,3.5-.4,4.7-.5C249.5,153.2,245.3,153.4,244.7,151.4Z" fill="#fff" opacity="0.57"/>
  <path id="Path_85" data-name="Path 85" d="M263.6,150.9a9.208,9.208,0,0,1,4,.5C267,153.1,263.4,152.9,263.6,150.9Z" fill="#fff" opacity="0.51"/>
  <path id="Path_86" data-name="Path 86" d="M309.7,171.6c1.1,1.7.6,3.8,0,5.7C308,176.1,308.1,172.8,309.7,171.6Z" fill="#fff" opacity="0.58"/>
  <path id="Path_87" data-name="Path 87" d="M246.5,182c-.2-2.1,3.5-2.2,4.1-.3A29.338,29.338,0,0,1,246.5,182Z" fill="#fff" opacity="0.4"/>
  <path id="Path_88" data-name="Path 88" d="M259.8,181.7c1-2.1,5.2-1.9,5.6.4A50.884,50.884,0,0,1,259.8,181.7Z" fill="#fff" opacity="0.46"/>
  <path id="Path_89" data-name="Path 89" d="M334.5,202.2a6.937,6.937,0,0,1,5.8.2C339,204.1,335.7,203.9,334.5,202.2Z" fill="#fff" opacity="0.6"/>
  <path id="Path_90" data-name="Path 90" d="M232.8,240.3c-.2-3.6-.2-7.1-.1-10.6C232.7,233.2,232.8,236.8,232.8,240.3Z" fill="#fff" opacity="0.51"/>
  <path id="Path_91" data-name="Path 91" d="M263,237.2c-2.3-.2-2.2-5.2,0-5.4Z" fill="#fff" opacity="0.4"/>
  <path id="Path_92" data-name="Path 92" d="M91.9,235.6a5.811,5.811,0,0,1,.5-3.4C94,232.7,93.7,235.9,91.9,235.6Z" fill="#fff" opacity="0.46"/>
  <path id="Path_93" data-name="Path 93" d="M419.6,232.2a5.812,5.812,0,0,1,.5,3.4C418.3,235.8,418,232.7,419.6,232.2Z" fill="#fff" opacity="0.54"/>
  <path id="Path_94" data-name="Path 94" d="M122.6,237.8c-1.7-.5-1.3-3.7.6-3.4A10.158,10.158,0,0,1,122.6,237.8Z" fill="#fff" opacity="0.47"/>
  <path id="Path_95" data-name="Path 95" d="M388.9,235.3c1.8-.2,2.2,3,.6,3.5A7.024,7.024,0,0,1,388.9,235.3Z" fill="#fff" opacity="0.55"/>
  <path id="Path_96" data-name="Path 96" d="M151.8,240.6a5.7,5.7,0,0,1,.5-3.4C154,237.7,153.6,240.8,151.8,240.6Z" fill="#fff" opacity="0.52"/>
  <path id="Path_97" data-name="Path 97" d="M420.2,240.7c.1,2.8.3,5.7.4,8.5C420.4,246.4,420.3,243.5,420.2,240.7Z" fill="#fff" opacity="0.58"/>
  <path id="Path_98" data-name="Path 98" d="M91.3,252.8c.2-3.7.3-7.4.5-11.1-.1,3-.4,8.8-.5,11.8Z" fill="#fff" opacity="0.65"/>
  <path id="Path_99" data-name="Path 99" d="M121.1,251.3c.1-2.9.3-5.7.5-8.5C121.4,245.6,121.2,248.4,121.1,251.3Z" fill="#fff" opacity="0.37"/>
  <path id="Path_100" data-name="Path 100" d="M390.2,242.8c.2,4.8.5,9.7.6,14.5C390.6,252.5,390.4,247.6,390.2,242.8Z" fill="#fff" opacity="0.35"/>
  <path id="Path_101" data-name="Path 101" d="M360.6,244.4a9.208,9.208,0,0,1,.5,4C359,248.6,358.9,245,360.6,244.4Z" fill="#fff" opacity="0.49"/>
  <path id="Path_102" data-name="Path 102" d="M151.7,267.3c-.4-7.2-.2-14.4.1-21.6C151.8,252.9,152,260.1,151.7,267.3Z" fill="#fff" opacity="0.69"/>
  <path id="Path_103" data-name="Path 103" d="M330.1,246.4c2,.1,1.8,3.6.1,4.1A8.143,8.143,0,0,1,330.1,246.4Z" fill="#fff" opacity="0.43"/>
  <path id="Path_104" data-name="Path 104" d="M181.6,251.6c-1.8-.6-1.7-4.3.5-4.1A18.407,18.407,0,0,1,181.6,251.6Z" fill="#fff" opacity="0.49"/>
  <path id="Path_105" data-name="Path 105" d="M274.8,249.1c1.3-.1,4-.1,5.4-.1C280.1,251.2,275,251.3,274.8,249.1Z" fill="#fff" opacity="0.4"/>
  <path id="Path_106" data-name="Path 106" d="M181.3,256.7c.2,3.1.4,6.2.7,9.3h-1.1C181,262.9,181.2,259.8,181.3,256.7Z" fill="#fff" opacity="0.41"/>
  <path id="Path_107" data-name="Path 107" d="M121.3,258.7c.1,3,.2,6.1.4,9.1l.1.7C121.5,265.2,121.4,262,121.3,258.7Z" fill="#fff" opacity="0.33"/>
  <path id="Path_108" data-name="Path 108" d="M330,264.5a13.946,13.946,0,0,1,.4-4.1C332.3,261,332.1,264.7,330,264.5Z" fill="#fff" opacity="0.52"/>
  <path id="Path_109" data-name="Path 109" d="M360.6,267.2c-1.9-.9-1.8-5.2.5-5.5A34.086,34.086,0,0,1,360.6,267.2Z" fill="#fff" opacity="0.58"/>
  <path id="Path_110" data-name="Path 110" d="M91.3,262.2v-.7c.2,3.2.4,6.6.4,9.9C91.6,268.3,91.4,265.2,91.3,262.2Z" fill="#fff" opacity="0.49"/>
  <path id="Path_111" data-name="Path 111" d="M390,267.5a13.946,13.946,0,0,1,.4-4.1C392.2,264,392.1,267.6,390,267.5Z" fill="#fff" opacity="0.51"/>
  <path id="Path_112" data-name="Path 112" d="M420.1,272.3c.1-2.8.3-5.7.5-8.5C420.5,266.6,420.2,269.5,420.1,272.3Z" fill="#fff" opacity="0.5"/>
  <path id="Path_113" data-name="Path 113" d="M122.6,273.2a8.279,8.279,0,0,1,.5,3.5C121.2,276.9,120.9,273.7,122.6,273.2Z" fill="#fff" opacity="0.43"/>
  <path id="Path_114" data-name="Path 114" d="M389,277.5a13.946,13.946,0,0,1,.4-4.1C391.2,274,391.1,277.6,389,277.5Z" fill="#fff" opacity="0.47"/>
  <path id="Path_115" data-name="Path 115" d="M91.8,275.3c1.9-.2,2.1,3,.4,3.5A10.2,10.2,0,0,1,91.8,275.3Z" fill="#fff" opacity="0.48"/>
  <path id="Path_116" data-name="Path 116" d="M419.7,279.8c-1.7-.5-1.5-3.7.4-3.5A6.923,6.923,0,0,1,419.7,279.8Z" fill="#fff" opacity="0.5"/>
  <path id="Path_117" data-name="Path 117" d="M271.7,279.3c3.9-.1,7.8-.1,11.6,0C279.5,279.5,275.6,279.4,271.7,279.3Z" fill="#fff" opacity="0.49"/>
  <path id="Path_118" data-name="Path 118" d="M189.8,292.5a7.168,7.168,0,0,1,0,5C187.9,296.7,187.9,293.3,189.8,292.5Z" fill="#fff" opacity="0.56"/>
  <path id="Path_119" data-name="Path 119" d="M214.4,322.1a5.012,5.012,0,0,1,5,.3C218.4,324.1,215.1,324,214.4,322.1Z" fill="#fff" opacity="0.58"/>
  <path id="Path_120" data-name="Path 120" d="M245.8,330.3c3.2.2,6.3.4,9.5.5C252.1,330.6,249,330.5,245.8,330.3Z" fill="#fff" opacity="0.41"/>
  <path id="Path_121" data-name="Path 121" d="M260.4,330.4a13.946,13.946,0,0,1,4.1-.4C264.7,332.1,261,332.2,260.4,330.4Z" fill="#fff" opacity="0.49"/>
  <path id="Path_122" data-name="Path 122" d="M238.2,359.7c.5-1.6,3.6-1.3,3.4.5A5.7,5.7,0,0,1,238.2,359.7Z" fill="#fff" opacity="0.55"/>
  <path id="Path_123" data-name="Path 123" d="M271.4,360.2c-.3-1.9,2.9-2.2,3.4-.5A8.049,8.049,0,0,1,271.4,360.2Z" fill="#fff" opacity="0.51"/>
  <path id="Path_124" data-name="Path 124" d="M245.7,360.2c6.8-.1,13.7-.2,20.6,0C259.4,360.3,252.5,360.3,245.7,360.2Z" fill="#fff" opacity="0.69"/>
  <path id="Path_125" data-name="Path 125" d="M413.9,375.4c1.6-.2,1.9,2.8.5,3.3A3.1,3.1,0,0,1,413.9,375.4Z" fill="#fff" opacity="0.62"/>
  <path id="Path_126" data-name="Path 126" d="M235.4,388.9a8.049,8.049,0,0,1,3.4.5C238.3,391.1,235.1,390.7,235.4,388.9Z" fill="#fff" opacity="0.42"/>
  <path id="Path_127" data-name="Path 127" d="M274.2,389.5a6.025,6.025,0,0,1,3.5-.5C277.9,390.8,274.7,391.1,274.2,389.5Z" fill="#fff" opacity="0.5"/>
  <path id="Path_128" data-name="Path 128" d="M243.8,390.3c3.1.3,6.3.4,9.5.5C250.1,390.6,246.9,390.5,243.8,390.3Z" fill="#fff" opacity="0.33"/>
  <path id="Path_129" data-name="Path 129" d="M260.7,390.8c2.8-.1,5.7-.3,8.5-.4C266.4,390.6,263.5,390.8,260.7,390.8Z" fill="#fff" opacity="0.4"/>
  <path id="Path_130" data-name="Path 130" d="M461.3,401.2c.5.4,1.4,1.4,1.9,1.9-.4,1.2-1.3,3.6-1.7,4.8C461.4,406.2,461.4,402.8,461.3,401.2Z" fill="#fff" opacity="0.65"/>
  <path id="Path_131" data-name="Path 131" d="M375.4,413.9a3.048,3.048,0,0,1,3.3.4C378.2,415.8,375.3,415.5,375.4,413.9Z" fill="#fff" opacity="0.62"/>
  <path id="Path_132" data-name="Path 132" d="M233.2,419.7c.5-1.7,3.7-1.5,3.5.4A6.924,6.924,0,0,1,233.2,419.7Z" fill="#fff" opacity="0.58"/>
  <path id="Path_133" data-name="Path 133" d="M275.5,420.2c-.1-2.1,3.5-2.3,4.1-.5A18.407,18.407,0,0,1,275.5,420.2Z" fill="#fff" opacity="0.5"/>
  <path id="Path_134" data-name="Path 134" d="M241.7,420.2c3.2.1,6.4.2,9.5.5C248.1,420.5,244.9,420.3,241.7,420.2Z" fill="#fff" opacity="0.6"/>
  <path id="Path_135" data-name="Path 135" d="M260.5,420.8c3.6-.3,7.2-.4,10.9-.5-3.4.2-6.8.3-10.2.5Z" fill="#fff" opacity="0.57"/>
  <path id="Path_136" data-name="Path 136" d="M0,459.2l1-.3c-.2,1.6-.7,4.8-1,6.4Z" fill="#fff" opacity="0.49"/>
  <path id="Path_137" data-name="Path 137" d="M401.2,461.2c1.7.1,5.2.4,6.9.5-.6.4-1.6,1.2-2.2,1.6C404.7,462.8,402.4,461.7,401.2,461.2Z" fill="#fff" opacity="0.66"/>
  <path id="Path_138" data-name="Path 138" d="M0,469c1.5,1.1,2.3,3.7.3,4.8l-.3-.5Z" fill="#fff" opacity="0.54"/>
  <path id="Path_139" data-name="Path 139" d="M37.2,511.7c1-2,3.7-1.2,4.8.3H37.7Z" fill="#fff" opacity="0.48"/>
  <path id="Path_140" data-name="Path 140" d="M48,512c1.1-1.5,3.8-2.3,4.8-.3l-.5.3Z" fill="#fff" opacity="0.48"/>
</svg>
