<svg id="database" xmlns="http://www.w3.org/2000/svg" viewBox="0 0 512 512">
  <path id="Path_1" data-name="Path 1" d="M227.8,0h10c-3.7.1-7.3.1-11,.1Z" fill="#fff" opacity="0.3"/>
  <path id="Path_2" data-name="Path 2" d="M238.5,0h12c-4.3.1-8.5,0-12.7,0Z" fill="#fff" opacity="0.64"/>
  <path id="Path_3" data-name="Path 3" d="M250.5,0h22.7c3.7.1,7.4.1,11.1.1,1.6.2,5,.6,6.6.8a4.937,4.937,0,0,0,5.3,1c1.9.1,3.8.2,5.7.2a5.339,5.339,0,0,0,5.3.8c1.5.1,3.1.2,4.7.3a5.3,5.3,0,0,0,5.3.6,20.614,20.614,0,0,0,2.6.3,3.674,3.674,0,0,0,4.3.7c27.2,4.4,55.3,10,78.6,25.5,6.6,5,13.4,10.7,16.1,18.8,2.5,7.4,2.1,15.2,2.3,22.9q-.3,127.5,0,255c.1,8.4-1.8,17.2-7.4,23.7-10,12-24.8,18.4-39.1,23.8a301.968,301.968,0,0,1-50.4,11.7,3.8,3.8,0,0,0-4.4.7c-1.2.1-2.5.1-3.7.2a5.178,5.178,0,0,0-5.2,1c-1.3-.2-2.7-.3-4-.5a3.576,3.576,0,0,0-3.8,1.5c-1.6.1-3.2.1-4.8.2-3.2.1-6.4.2-9.6.4-2.8.1-5.6.3-8.4.5-3.1,0-6.1,0-9.2.2v.8c-.4,8.6-.5,17.2-.2,25.9,1.1,1.6-1,6,1.5,7.4,4.4,3.4,9.6,5.7,13.7,9.4,5.7,4.8,9.2,11.4,12.6,17.8q62.85.75,125.7.1c4.9-9.3,10.8-19.1,20.7-23.7a109.283,109.283,0,0,1,13.7-5.6,5.066,5.066,0,0,0,5.3-.3h5.8a5.289,5.289,0,0,0,5.3.4c8.1,2.6,16.4,5.4,22.4,11.8,7.7,6.6,11.4,16.3,14.1,25.8-2,1-1.2,3.7.3,4.8v5c-1.5,1.1-2.3,3.7-.3,4.8-3.2,8-5.5,16.8-12.1,22.9-6.3,7.4-15.8,10.8-24.8,14-1-2-3.7-1.2-4.8.3h-6c-1.1-1.5-3.7-2.3-4.8-.3-8-3.1-16.7-5.6-22.9-12-5.5-4.6-8.5-11.2-11.9-17.4q-62.85-.75-125.8-.1c-4.9,9.3-10.7,19.2-20.7,23.6-4.5,2.3-9.3,4-14,5.9-1.1-2-3.8-1.2-4.9.3h-6c-1.1-1.5-3.7-2.3-4.8-.3-8-3.1-16.7-5.6-22.9-12-5.5-4.6-8.5-11.2-11.9-17.4q-62.85-.75-125.8-.1c-3.9,7.5-8.4,15-15.1,20.3-6,4.2-12.9,6.5-19.7,9.2-1-2-3.7-1.2-4.8.3H43c-1.1-1.5-3.8-2.3-4.8-.3-8.5-2.8-17.6-5.3-23.9-12-7.4-6.5-10.9-15.9-14-24.9,2-1.1,1.2-3.7-.3-4.8v-5c1.5-1.1,2.3-3.8.3-4.8C3,450.7,6.7,441,14.4,434.4c6.2-6.6,14.9-9.6,23.4-11.9a5.245,5.245,0,0,0,5.4-.3h4.6a5.245,5.245,0,0,0,5.4.3c6.7,2.3,13.4,4.9,19.3,9,6.7,5.3,11.2,12.8,15.1,20.3q62.85.6,125.7-.1c3.7-7.1,7.7-14.2,14.2-19.1,4-3.4,9.2-5.3,13-9,1.6-10.8.4-21.8.6-32.7h-.9c-3.2-.3-6.3-.5-9.4-.7-2.9-.2-5.7-.4-8.6-.5-2.8-.2-5.6-.3-8.4-.5-1.6-.1-3.1-.2-4.7-.3a3.835,3.835,0,0,0-4.3-.9h-4.7a3.711,3.711,0,0,0-4.3-1c-1.2,0-2.4-.1-3.6-.1a3.63,3.63,0,0,0-4.4-.6c-27.8-4.9-56.7-10.4-80.3-26.8-7.8-5.5-12.7-13.7-16.3-22.3,1.4-1,.9-3,.1-4.2-.8-85.3.1-170.7-.5-256,.4-11.8-1.1-24.9,6.1-35A65.5,65.5,0,0,1,120,24c18.9-9.8,40-14.4,60.8-18.1a3.827,3.827,0,0,0,4.4-.8c3.2-.4,6.4-.8,9.7-1.3a5.606,5.606,0,0,0,5.3-.6c1.5-.1,3.1-.2,4.6-.3a5.339,5.339,0,0,0,5.3-.8c1.9-.1,3.8-.1,5.7-.2a5.339,5.339,0,0,0,5.3-.8c1.9-.3,3.8-.7,5.7-1,3.7,0,7.3,0,11-.1,4.2,0,8.4.1,12.7,0M227.9,30.9c-1.9.1-3.7.4-5.6.6-.7-2-4.8-1.8-4.7.6-2.1.1-4.2.3-6.3.5-.6-2-4.8-1.9-4.7.4-9.3.7-18.5,2.6-27.7,3.9-20.6,4.3-42.6,8.5-58.7,23.1,6.7,6.2,14.7,10.5,23.1,13.7a199.071,199.071,0,0,0,48.1,11.2c-.3,1.8,2.9,2.3,3.4.6,3.8,1.4,7.8,1.3,11.8,1.5,0,2.3,4.1,2.5,4.7.4,2.1.2,4.2.4,6.3.5-.1,2.3,4,2.6,4.7.6a48.59,48.59,0,0,0,5.5.7c3.2.3,6.5.3,9.8.4,4.2,0,8.4.1,12.7.2,3.5,0,6.9-.1,10.4-.2,3.6.1,7.1,0,10.7-.1,4,0,8-.2,12-.3h-.6c2.3-.1,4.6-.4,6.9-.7.6,2,4.8,1.8,4.7-.5,2.4-.2,4.9-.3,7.3-.6.6,2.1,4.8,1.9,4.7-.4,3.6-.3,7.3-.4,10.8-1.5.5,1.7,3.7,1.3,3.4-.6,6.8-.3,13.4-1.8,20.1-3.2,18-4.1,37-8.9,51.1-21.7-7.2-6.8-16.2-11.2-25.4-14.5-14.8-5-30.1-9-45.7-10.4.2-1.9-3-2.2-3.5-.5A57.821,57.821,0,0,0,305.4,33c.1-2.3-4.1-2.5-4.7-.4-2.1-.2-4.2-.4-6.3-.5.1-2.3-4-2.6-4.7-.6-2.2-.3-4.3-.6-6.5-.7-3.9-.2-7.9-.3-11.8-.3-3.5-.1-7.1-.2-10.7-.2-3.5-.1-7-.1-10.4-.1-4.3.1-8.5.1-12.7.2-3.2,0-6.5.2-9.7.5M121.1,97c.3,18-1.4,36.2.8,54.1,8.4,8.7,20.6,12.5,31.9,16.2,17.4,4.3,34.8,9.2,52.8,9.7-.1,2.3,4.1,2.4,4.7.4,2.1.2,4.2.4,6.3.5-.1,2.3,4,2.6,4.7.6a48.588,48.588,0,0,0,5.5.7c3.2.3,6.5.3,9.8.4,4.2,0,8.4.1,12.7.2,3.5,0,6.9-.1,10.4-.2,3.6.1,7.1,0,10.7-.1,4,0,8-.2,12-.3h-.6c2.3-.1,4.6-.4,6.9-.7.6,2,4.8,1.8,4.7-.5,2.4-.2,4.9-.3,7.3-.6.6,2.1,4.8,1.9,4.7-.4,3.6-.3,7.3-.4,10.8-1.5.5,1.7,3.7,1.3,3.4-.6,20.8-2.4,41.7-7.2,60.5-16.8,4.1-2.6,10.1-5.4,9.9-11,.4-16.8-.1-33.5-.1-50.2-21.3,9.5-44.2,15-67.2,18.8-.4-1.7-3.7-1.4-3.4.5l-3.6.4c-.7-1.8-4.3-1.7-4.2.4a39.334,39.334,0,0,0-5.9.6c-.6-1.8-4.2-1.7-4.1.5a58.075,58.075,0,0,0-7.2.5c-.6-2-4.8-1.9-4.7.4-1.8.1-3.6.1-5.3.2q-5.85,0-11.7.3c-3.9,0-7.9.1-11.8.2H250.2c-3.9-.2-7.9-.2-11.8-.3-3.9-.2-7.8-.2-11.7-.3-2,0-4.1-.1-6.2,0,.1-2.1-3.5-2.2-4.1-.5a40.2,40.2,0,0,0-6.9-.6c.1-2.1-3.5-2.2-4.1-.4a39.151,39.151,0,0,0-5.9-.5c.2-2.1-3.5-2.3-4.1-.6a65.149,65.149,0,0,0-10.8-1.4c.3-1.8-2.9-2.1-3.4-.5-20.5-4.2-41-9.1-60.1-17.6m0,90c.1,17.5-.9,35.1.4,52.6.4,3.6,4.6,4.8,6.9,7,19.2,10.7,41.3,15.7,63,18.3-.3,1.8,2.9,2.3,3.4.6,3.8,1.4,7.8,1.3,11.8,1.5,0,2.3,4.1,2.5,4.7.4,2.1.2,4.2.4,6.3.5-.1,2.3,4,2.6,4.7.6a48.6,48.6,0,0,0,5.5.7c3.2.3,6.5.3,9.8.4,4.2,0,8.4.1,12.7.2,3.5,0,6.9-.1,10.4-.2,3.6.1,7.1,0,10.7-.1,4,0,8-.2,12-.3h-.6c2.3-.1,4.6-.4,6.9-.7.6,2,4.8,1.8,4.7-.5,2.4-.2,4.9-.3,7.3-.6.6,2.1,4.8,1.9,4.7-.4,3.6-.3,7.3-.4,10.8-1.5.5,1.7,3.7,1.3,3.4-.6,20.8-2.4,41.7-7.2,60.5-16.8,4.1-2.6,10.1-5.4,9.9-11,.4-16.8-.1-33.5-.1-50.2-21.3,9.5-44.2,15-67.2,18.8-.4-1.7-3.7-1.4-3.4.5l-3.6.4c-.7-1.8-4.3-1.7-4.2.4a39.334,39.334,0,0,0-5.9.6c-.6-1.8-4.2-1.7-4.1.5a58.073,58.073,0,0,0-7.2.5c-.6-2.1-4.8-1.9-4.7.4l-6.3.3-12.7.3c-3.6.1-7.2.1-10.8.2-3.5.1-7,0-10.6-.1-3.9-.2-7.9-.2-11.8-.3-3.9-.2-7.8-.2-11.7-.3-2,0-4.1-.1-6.2,0,.1-2.1-3.5-2.2-4.1-.5a40.2,40.2,0,0,0-6.9-.6c.1-2.1-3.5-2.2-4.1-.4a39.15,39.15,0,0,0-5.9-.5c.2-2.2-3.5-2.3-4.1-.6a65.148,65.148,0,0,0-10.8-1.4c.3-1.8-2.9-2.1-3.4-.5-20.5-4.2-41-9.1-60.1-17.6m-.1,90c.2,17.8-.8,35.8.5,53.6.4,3.6,4.6,4.8,6.9,7,19.2,10.7,41.3,15.7,63,18.3-.3,1.8,2.9,2.3,3.4.6,3.8,1.4,7.8,1.3,11.8,1.5,0,2.3,4.1,2.5,4.7.4,2.1.2,4.2.4,6.3.5-.1,2.3,4,2.6,4.7.6a48.6,48.6,0,0,0,5.5.7c3.2.3,6.5.3,9.8.4,4.2,0,8.4.1,12.7.2,3.5,0,6.9-.1,10.4-.2,3.6.1,7.1,0,10.7-.1l12-.3h-.6c2.3-.1,4.6-.4,6.9-.7.6,2,4.8,1.8,4.7-.5,2.4-.2,4.9-.3,7.3-.6.6,2.1,4.8,1.9,4.7-.4,3.6-.3,7.3-.4,10.8-1.5.5,1.7,3.7,1.3,3.4-.6,20.8-2.4,41.7-7.2,60.5-16.8,4.2-2.6,10-5.4,9.9-11,.4-17.1-.1-34.1-.1-51.2-21.3,9.5-44.2,15-67.2,18.8-.4-1.7-3.7-1.4-3.4.5l-3.6.4c-.7-1.8-4.3-1.7-4.2.4a39.336,39.336,0,0,0-5.9.6c-.6-1.8-4.2-1.7-4.1.5a58.07,58.07,0,0,0-7.2.5c-.6-2.1-4.8-1.9-4.7.4l-6.3.3-12.7.3c-3.6.1-7.2.1-10.8.2-3.5.1-7,0-10.6-.1-3.9-.2-7.9-.2-11.8-.3-3.9-.2-7.8-.2-11.7-.3-2,0-4.1-.1-6.2,0,.1-2.1-3.5-2.2-4.1-.5a40.2,40.2,0,0,0-6.9-.6c.1-2.1-3.5-2.2-4.1-.4a39.148,39.148,0,0,0-5.9-.5c.2-2.2-3.5-2.3-4.1-.6a65.148,65.148,0,0,0-10.8-1.4c.3-1.8-2.9-2.1-3.4-.5-20.5-4.2-41-9.1-60.2-17.6M41.4,452.4c-9.4,1.8-14.5,13.6-9.5,21.7,4.7,11.5,24,9.9,27.2-2.1,4.5-10.5-6.6-23.1-17.7-19.6m211,0c-9.4,1.8-14.5,13.6-9.5,21.7,4.7,11.5,24,9.9,27.2-2.1,4.5-10.5-6.6-23.1-17.7-19.6m211,0c-9.4,1.8-14.5,13.6-9.5,21.7,4.7,11.5,24,9.9,27.2-2.1C485.6,461.5,474.5,448.9,463.4,452.4Z" fill="#fff"/>
  <path id="Path_4" data-name="Path 4" d="M261.5,0h0Z" fill="#fff" opacity="0.66"/>
  <path id="Path_5" data-name="Path 5" d="M272.3,0h11l1,.1c-3.7,0-7.4,0-11.1-.1Z" fill="#fff" opacity="0.33"/>
  <path id="Path_6" data-name="Path 6" d="M215.8,1.9a5.375,5.375,0,0,1,5.3-.8A5.339,5.339,0,0,1,215.8,1.9Z" fill="#fff" opacity="0.46"/>
  <path id="Path_7" data-name="Path 7" d="M290.9.9a5.941,5.941,0,0,1,5.3,1A4.937,4.937,0,0,1,290.9.9Z" fill="#fff" opacity="0.46"/>
  <path id="Path_8" data-name="Path 8" d="M204.8,2.9a5.409,5.409,0,0,1,5.3-.8A5.339,5.339,0,0,1,204.8,2.9Z" fill="#fff" opacity="0.45"/>
  <path id="Path_9" data-name="Path 9" d="M301.9,2.1a5.409,5.409,0,0,1,5.3.8A5.339,5.339,0,0,1,301.9,2.1Z" fill="#fff" opacity="0.45"/>
  <path id="Path_10" data-name="Path 10" d="M194.9,3.8a5.071,5.071,0,0,1,5.3-.6A5.606,5.606,0,0,1,194.9,3.8Z" fill="#fff" opacity="0.53"/>
  <path id="Path_11" data-name="Path 11" d="M311.9,3.2a5.606,5.606,0,0,1,5.3.6A5.3,5.3,0,0,1,311.9,3.2Z" fill="#fff" opacity="0.53"/>
  <path id="Path_12" data-name="Path 12" d="M319.8,4.1a3.809,3.809,0,0,1,4.3.7A3.674,3.674,0,0,1,319.8,4.1Z" fill="#fff" opacity="0.52"/>
  <path id="Path_13" data-name="Path 13" d="M180.8,5.9a4,4,0,0,1,4.4-.8A3.827,3.827,0,0,1,180.8,5.9Z" fill="#fff" opacity="0.5"/>
  <path id="Path_14" data-name="Path 14" d="M227.9,30.9c3.2-.3,6.5-.5,9.7-.5h.8C234.8,30.5,231.4,30.7,227.9,30.9Z" fill="#fff" opacity="0.64"/>
  <path id="Path_15" data-name="Path 15" d="M237.6,30.4c4.2-.1,8.4-.1,12.7-.2-4,.1-8,.1-11.9.2Z" fill="#fff" opacity="0.33"/>
  <path id="Path_16" data-name="Path 16" d="M260.7,30.3c3.6,0,7.2.1,10.7.2h-.7C267.4,30.5,264,30.4,260.7,30.3Z" fill="#fff" opacity="0.27"/>
  <path id="Path_17" data-name="Path 17" d="M271.4,30.5c3.9,0,7.9.1,11.8.3l-12.5-.3Z" fill="#fff" opacity="0.58"/>
  <path id="Path_18" data-name="Path 18" d="M217.6,32.1c-.1-2.4,4-2.6,4.7-.6C221.1,31.7,218.8,31.9,217.6,32.1Z" fill="#fff" opacity="0.51"/>
  <path id="Path_19" data-name="Path 19" d="M289.7,31.5c.7-2,4.8-1.7,4.7.6C293.2,31.9,290.9,31.6,289.7,31.5Z" fill="#fff" opacity="0.51"/>
  <path id="Path_20" data-name="Path 20" d="M206.6,33c-.1-2.3,4.1-2.4,4.7-.4C210.1,32.7,207.8,32.9,206.6,33Z" fill="#fff" opacity="0.45"/>
  <path id="Path_21" data-name="Path 21" d="M300.7,32.6c.6-2.1,4.8-1.9,4.7.4C304.3,32.9,301.9,32.7,300.7,32.6Z" fill="#fff" opacity="0.45"/>
  <path id="Path_22" data-name="Path 22" d="M317.2,34.6c.5-1.7,3.7-1.4,3.5.5A8.279,8.279,0,0,1,317.2,34.6Z" fill="#fff" opacity="0.49"/>
  <path id="Path_23" data-name="Path 23" d="M191.4,84.9a8.159,8.159,0,0,1,3.4.6C194.3,87.2,191.1,86.7,191.4,84.9Z" fill="#fff" opacity="0.49"/>
  <path id="Path_24" data-name="Path 24" d="M317.2,85.5a6.646,6.646,0,0,1,3.4-.6C320.9,86.8,317.7,87.2,317.2,85.5Z" fill="#fff" opacity="0.49"/>
  <path id="Path_25" data-name="Path 25" d="M206.6,87c1.2.1,3.5.3,4.7.4C210.7,89.5,206.6,89.3,206.6,87Z" fill="#fff" opacity="0.45"/>
  <path id="Path_26" data-name="Path 26" d="M301.7,87.4c1.2-.1,3.6-.3,4.7-.4C306.5,89.3,302.3,89.5,301.7,87.4Z" fill="#fff" opacity="0.54"/>
  <path id="Path_27" data-name="Path 27" d="M217.6,87.9c1.2.2,3.5.5,4.7.6C221.6,90.5,217.5,90.2,217.6,87.9Z" fill="#fff" opacity="0.51"/>
  <path id="Path_28" data-name="Path 28" d="M289.7,88.5c1.2-.1,3.5-.4,4.7-.5C294.5,90.3,290.3,90.5,289.7,88.5Z" fill="#fff" opacity="0.51"/>
  <path id="Path_29" data-name="Path 29" d="M227.8,89.2c3.5.2,7,.3,10.5.4h-.7C234.3,89.5,231,89.5,227.8,89.2Z" fill="#fff" opacity="0.64"/>
  <path id="Path_30" data-name="Path 30" d="M238.3,89.6c4,0,8,.1,12,.2-4.3-.1-8.5-.2-12.7-.2Z" fill="#fff" opacity="0.33"/>
  <path id="Path_31" data-name="Path 31" d="M260.7,89.6c3.3-.1,6.6-.1,10-.1h.7C267.8,89.6,264.3,89.7,260.7,89.6Z" fill="#fff" opacity="0.27"/>
  <path id="Path_32" data-name="Path 32" d="M270.7,89.5l12.1-.3h.6c-4,.1-8,.3-12,.3Z" fill="#fff" opacity="0.58"/>
  <path id="Path_33" data-name="Path 33" d="M181.2,114.6c.5-1.6,3.7-1.3,3.4.5A5.811,5.811,0,0,1,181.2,114.6Z" fill="#fff" opacity="0.5"/>
  <path id="Path_34" data-name="Path 34" d="M320.3,116.2c-.3-1.9,3-2.2,3.4-.5A10.02,10.02,0,0,1,320.3,116.2Z" fill="#fff" opacity="0.52"/>
  <path id="Path_35" data-name="Path 35" d="M195.4,116.5c.6-1.7,4.3-1.5,4.1.6A14.027,14.027,0,0,1,195.4,116.5Z" fill="#fff" opacity="0.53"/>
  <path id="Path_36" data-name="Path 36" d="M312.5,117c-.1-2.1,3.5-2.2,4.2-.4A14.975,14.975,0,0,1,312.5,117Z" fill="#fff" opacity="0.53"/>
  <path id="Path_37" data-name="Path 37" d="M205.4,117.6c.6-1.8,4.2-1.7,4.1.4A13.945,13.945,0,0,1,205.4,117.6Z" fill="#fff" opacity="0.45"/>
  <path id="Path_38" data-name="Path 38" d="M302.5,118.1c-.1-2.2,3.5-2.3,4.1-.5A18.406,18.406,0,0,1,302.5,118.1Z" fill="#fff" opacity="0.45"/>
  <path id="Path_39" data-name="Path 39" d="M216.4,118.6c.6-1.7,4.2-1.6,4.1.5A11.28,11.28,0,0,1,216.4,118.6Z" fill="#fff" opacity="0.46"/>
  <path id="Path_40" data-name="Path 40" d="M290.6,119c-.1-2.3,4.1-2.4,4.7-.4C294.1,118.7,291.8,118.9,290.6,119Z" fill="#fff" opacity="0.5"/>
  <path id="Path_41" data-name="Path 41" d="M226.7,119.1c3.9.1,7.8.1,11.7.3h-.7Z" fill="#fff" opacity="0.3"/>
  <path id="Path_42" data-name="Path 42" d="M238.4,119.4c3.9.1,7.9.1,11.8.3-4.1-.1-8.3-.2-12.5-.3Z" fill="#fff" opacity="0.64"/>
  <path id="Path_43" data-name="Path 43" d="M261.8,119.7c3.9-.1,7.9-.2,11.8-.2h.7C270.2,119.5,266,119.6,261.8,119.7Z" fill="#fff" opacity="0.64"/>
  <path id="Path_44" data-name="Path 44" d="M273.6,119.5q5.85-.3,11.7-.3l-11,.3Z" fill="#fff" opacity="0.3"/>
  <path id="Path_45" data-name="Path 45" d="M317.2,175.5a6.646,6.646,0,0,1,3.4-.6C320.9,176.8,317.7,177.2,317.2,175.5Z" fill="#fff" opacity="0.49"/>
  <path id="Path_46" data-name="Path 46" d="M206.6,177c1.2.1,3.5.3,4.7.4C210.7,179.4,206.5,179.3,206.6,177Z" fill="#fff" opacity="0.45"/>
  <path id="Path_47" data-name="Path 47" d="M301.7,177.4c1.2-.1,3.6-.3,4.7-.4C306.5,179.3,302.3,179.5,301.7,177.4Z" fill="#fff" opacity="0.54"/>
  <path id="Path_48" data-name="Path 48" d="M217.6,177.9c1.2.2,3.5.5,4.7.6C221.6,180.5,217.5,180.2,217.6,177.9Z" fill="#fff" opacity="0.51"/>
  <path id="Path_49" data-name="Path 49" d="M289.7,178.5c1.2-.1,3.5-.4,4.7-.5C294.5,180.3,290.3,180.5,289.7,178.5Z" fill="#fff" opacity="0.51"/>
  <path id="Path_50" data-name="Path 50" d="M227.8,179.2c3.5.2,7,.3,10.5.4h-.7C234.3,179.5,231,179.5,227.8,179.2Z" fill="#fff" opacity="0.64"/>
  <path id="Path_51" data-name="Path 51" d="M238.3,179.6c4,0,8,.1,12,.2-4.3-.1-8.5-.2-12.7-.2Z" fill="#fff" opacity="0.33"/>
  <path id="Path_52" data-name="Path 52" d="M260.7,179.6c3.3-.1,6.6-.1,10-.1h.7C267.8,179.6,264.3,179.7,260.7,179.6Z" fill="#fff" opacity="0.27"/>
  <path id="Path_53" data-name="Path 53" d="M270.7,179.5l12.1-.3h.6c-4,.1-8,.3-12,.3Z" fill="#fff" opacity="0.58"/>
  <path id="Path_54" data-name="Path 54" d="M181.2,204.6c.5-1.6,3.7-1.3,3.4.5A5.812,5.812,0,0,1,181.2,204.6Z" fill="#fff" opacity="0.5"/>
  <path id="Path_55" data-name="Path 55" d="M320.3,206.2c-.3-1.9,3-2.2,3.4-.5A10.02,10.02,0,0,1,320.3,206.2Z" fill="#fff" opacity="0.52"/>
  <path id="Path_56" data-name="Path 56" d="M195.4,206.5c.6-1.7,4.3-1.6,4.1.6A14.027,14.027,0,0,1,195.4,206.5Z" fill="#fff" opacity="0.53"/>
  <path id="Path_57" data-name="Path 57" d="M312.5,207c-.1-2.1,3.5-2.2,4.2-.4A14.975,14.975,0,0,1,312.5,207Z" fill="#fff" opacity="0.53"/>
  <path id="Path_58" data-name="Path 58" d="M205.4,207.6c.6-1.8,4.2-1.7,4.1.4A13.946,13.946,0,0,1,205.4,207.6Z" fill="#fff" opacity="0.45"/>
  <path id="Path_59" data-name="Path 59" d="M302.5,208.1c-.1-2.2,3.5-2.3,4.1-.5A18.407,18.407,0,0,1,302.5,208.1Z" fill="#fff" opacity="0.45"/>
  <path id="Path_60" data-name="Path 60" d="M216.4,208.6c.6-1.7,4.2-1.6,4.1.5A11.28,11.28,0,0,1,216.4,208.6Z" fill="#fff" opacity="0.46"/>
  <path id="Path_61" data-name="Path 61" d="M290.6,209c-.1-2.3,4.1-2.5,4.7-.4C294.1,208.7,291.8,208.9,290.6,209Z" fill="#fff" opacity="0.5"/>
  <path id="Path_62" data-name="Path 62" d="M226.7,209.1c3.9.1,7.8.1,11.7.3h-.7Z" fill="#fff" opacity="0.3"/>
  <path id="Path_63" data-name="Path 63" d="M238.4,209.4c3.9.1,7.9.1,11.8.3-4.1-.1-8.3-.2-12.5-.3Z" fill="#fff" opacity="0.64"/>
  <path id="Path_64" data-name="Path 64" d="M260.8,209.8c3.6-.1,7.2-.1,10.8-.2h.7C268.5,209.7,264.6,209.8,260.8,209.8Z" fill="#fff" opacity="0.69"/>
  <path id="Path_65" data-name="Path 65" d="M271.6,209.6l12.7-.3-12,.3Z" fill="#fff" opacity="0.35"/>
  <path id="Path_66" data-name="Path 66" d="M191.4,264.9a6.832,6.832,0,0,1,3.4.6C194.3,267.2,191.1,266.7,191.4,264.9Z" fill="#fff" opacity="0.49"/>
  <path id="Path_67" data-name="Path 67" d="M317.2,265.5a6.646,6.646,0,0,1,3.4-.6C320.9,266.8,317.7,267.2,317.2,265.5Z" fill="#fff" opacity="0.49"/>
  <path id="Path_68" data-name="Path 68" d="M206.6,267c1.2.1,3.5.3,4.7.4C210.7,269.5,206.6,269.3,206.6,267Z" fill="#fff" opacity="0.45"/>
  <path id="Path_69" data-name="Path 69" d="M301.7,267.4c1.2-.1,3.6-.3,4.7-.4C306.5,269.3,302.3,269.5,301.7,267.4Z" fill="#fff" opacity="0.54"/>
  <path id="Path_70" data-name="Path 70" d="M217.6,267.9c1.2.2,3.5.5,4.7.6C221.6,270.5,217.5,270.2,217.6,267.9Z" fill="#fff" opacity="0.51"/>
  <path id="Path_71" data-name="Path 71" d="M289.7,268.5c1.2-.1,3.5-.4,4.7-.5C294.5,270.3,290.3,270.5,289.7,268.5Z" fill="#fff" opacity="0.51"/>
  <path id="Path_72" data-name="Path 72" d="M227.8,269.2c3.5.2,7,.3,10.5.4h-.7C234.3,269.5,231,269.5,227.8,269.2Z" fill="#fff" opacity="0.64"/>
  <path id="Path_73" data-name="Path 73" d="M238.3,269.6c4,0,8,.1,12,.2-4.3-.1-8.5-.2-12.7-.2Z" fill="#fff" opacity="0.33"/>
  <path id="Path_74" data-name="Path 74" d="M260.7,269.6c3.3-.1,6.6-.1,10-.1h.7C267.8,269.6,264.3,269.7,260.7,269.6Z" fill="#fff" opacity="0.27"/>
  <path id="Path_75" data-name="Path 75" d="M270.7,269.5l12.1-.3h.6c-4,.1-8,.3-12,.3Z" fill="#fff" opacity="0.58"/>
  <path id="Path_76" data-name="Path 76" d="M181.2,294.6c.5-1.6,3.7-1.3,3.4.5A6.741,6.741,0,0,1,181.2,294.6Z" fill="#fff" opacity="0.5"/>
  <path id="Path_77" data-name="Path 77" d="M320.3,296.2c-.3-1.9,3-2.2,3.4-.5A10.02,10.02,0,0,1,320.3,296.2Z" fill="#fff" opacity="0.52"/>
  <path id="Path_78" data-name="Path 78" d="M195.4,296.5c.6-1.7,4.3-1.6,4.1.6A14.027,14.027,0,0,1,195.4,296.5Z" fill="#fff" opacity="0.53"/>
  <path id="Path_79" data-name="Path 79" d="M312.5,297c-.1-2.1,3.5-2.2,4.2-.4A14.975,14.975,0,0,1,312.5,297Z" fill="#fff" opacity="0.53"/>
  <path id="Path_80" data-name="Path 80" d="M205.4,297.6c.6-1.8,4.2-1.7,4.1.4A13.946,13.946,0,0,1,205.4,297.6Z" fill="#fff" opacity="0.45"/>
  <path id="Path_81" data-name="Path 81" d="M302.5,298.1c-.1-2.2,3.5-2.3,4.1-.5A18.407,18.407,0,0,1,302.5,298.1Z" fill="#fff" opacity="0.45"/>
  <path id="Path_82" data-name="Path 82" d="M216.4,298.6c.6-1.7,4.2-1.6,4.1.5A11.28,11.28,0,0,1,216.4,298.6Z" fill="#fff" opacity="0.46"/>
  <path id="Path_83" data-name="Path 83" d="M290.6,299c-.1-2.3,4.1-2.5,4.7-.4C294.1,298.7,291.8,298.9,290.6,299Z" fill="#fff" opacity="0.5"/>
  <path id="Path_84" data-name="Path 84" d="M226.7,299.1c3.9.1,7.8.1,11.7.3h-.7Z" fill="#fff" opacity="0.3"/>
  <path id="Path_85" data-name="Path 85" d="M238.4,299.4c3.9.1,7.9.1,11.8.3-4.1-.1-8.3-.2-12.5-.3Z" fill="#fff" opacity="0.64"/>
  <path id="Path_86" data-name="Path 86" d="M260.8,299.8c3.6-.1,7.2-.1,10.8-.2h.7C268.5,299.7,264.6,299.8,260.8,299.8Z" fill="#fff" opacity="0.69"/>
  <path id="Path_87" data-name="Path 87" d="M271.6,299.6l12.7-.3-12,.3Z" fill="#fff" opacity="0.35"/>
  <path id="Path_88" data-name="Path 88" d="M91.3,333c.8,1.2,1.3,3.2-.1,4.2C90.2,335.9,90.6,334.3,91.3,333Z" fill="#fff" opacity="0.55"/>
  <path id="Path_89" data-name="Path 89" d="M191.4,355.9a6.832,6.832,0,0,1,3.4.6C194.3,358.2,191.1,357.7,191.4,355.9Z" fill="#fff" opacity="0.49"/>
  <path id="Path_90" data-name="Path 90" d="M317.2,356.5a6.646,6.646,0,0,1,3.4-.6C320.9,357.8,317.7,358.2,317.2,356.5Z" fill="#fff" opacity="0.49"/>
  <path id="Path_91" data-name="Path 91" d="M206.6,358c1.2.1,3.5.3,4.7.4C210.7,360.5,206.6,360.3,206.6,358Z" fill="#fff" opacity="0.45"/>
  <path id="Path_92" data-name="Path 92" d="M301.7,358.4c1.2-.1,3.6-.3,4.7-.4C306.5,360.3,302.3,360.5,301.7,358.4Z" fill="#fff" opacity="0.54"/>
  <path id="Path_93" data-name="Path 93" d="M217.6,358.9c1.2.2,3.5.5,4.7.6C221.6,361.5,217.5,361.2,217.6,358.9Z" fill="#fff" opacity="0.51"/>
  <path id="Path_94" data-name="Path 94" d="M289.7,359.5c1.2-.1,3.5-.4,4.7-.5C294.5,361.3,290.3,361.5,289.7,359.5Z" fill="#fff" opacity="0.51"/>
  <path id="Path_95" data-name="Path 95" d="M227.8,360.2c3.5.2,7,.2,10.5.4h-.7C234.3,360.5,231,360.5,227.8,360.2Z" fill="#fff" opacity="0.64"/>
  <path id="Path_96" data-name="Path 96" d="M238.3,360.6c4,0,8,.1,12,.2-4.3-.1-8.5-.2-12.7-.2Z" fill="#fff" opacity="0.33"/>
  <path id="Path_97" data-name="Path 97" d="M260.7,360.6c3.3-.1,6.6-.1,10-.1h.7C267.8,360.6,264.3,360.7,260.7,360.6Z" fill="#fff" opacity="0.27"/>
  <path id="Path_98" data-name="Path 98" d="M270.7,360.5l12.1-.3h.6l-12,.3Z" fill="#fff" opacity="0.58"/>
  <path id="Path_99" data-name="Path 99" d="M187.8,386.3a3.63,3.63,0,0,1,4.4.6A3.945,3.945,0,0,1,187.8,386.3Z" fill="#fff" opacity="0.55"/>
  <path id="Path_100" data-name="Path 100" d="M319.8,386.9a3.8,3.8,0,0,1,4.4-.7A3.825,3.825,0,0,1,319.8,386.9Z" fill="#fff" opacity="0.55"/>
  <path id="Path_101" data-name="Path 101" d="M195.8,387a3.711,3.711,0,0,1,4.3,1A3.711,3.711,0,0,1,195.8,387Z" fill="#fff" opacity="0.46"/>
  <path id="Path_102" data-name="Path 102" d="M310.9,388.1a5.178,5.178,0,0,1,5.2-1A5.416,5.416,0,0,1,310.9,388.1Z" fill="#fff" opacity="0.51"/>
  <path id="Path_103" data-name="Path 103" d="M204.8,388a3.835,3.835,0,0,1,4.3.9A3.87,3.87,0,0,1,204.8,388Z" fill="#fff" opacity="0.46"/>
  <path id="Path_104" data-name="Path 104" d="M303.1,389.1a3.576,3.576,0,0,1,3.8-1.5C306.5,389.3,304.5,389.4,303.1,389.1Z" fill="#fff" opacity="0.46"/>
  <path id="Path_105" data-name="Path 105" d="M213.8,389.2c2.8.2,5.6.3,8.4.5C219.4,389.5,216.6,389.3,213.8,389.2Z" fill="#fff" opacity="0.5"/>
  <path id="Path_106" data-name="Path 106" d="M288.7,389.7c3.2-.2,6.4-.3,9.6-.4C295.1,389.4,291.9,389.5,288.7,389.7Z" fill="#fff" opacity="0.53"/>
  <path id="Path_107" data-name="Path 107" d="M230.8,390.2c3.1.2,6.2.4,9.4.7C237.1,390.7,233.9,390.4,230.8,390.2Z" fill="#fff" opacity="0.47"/>
  <path id="Path_108" data-name="Path 108" d="M271.1,390.4c3.1-.2,6.1-.2,9.2-.2-3.1.3-6.2.6-9.2,1Z" fill="#fff" opacity="0.53"/>
  <path id="Path_109" data-name="Path 109" d="M37.8,422.5a5.73,5.73,0,0,1,5.4-.3A5.245,5.245,0,0,1,37.8,422.5Z" fill="#fff" opacity="0.55"/>
  <path id="Path_110" data-name="Path 110" d="M47.8,422.2a5.73,5.73,0,0,1,5.4.3A5.245,5.245,0,0,1,47.8,422.2Z" fill="#fff" opacity="0.56"/>
  <path id="Path_111" data-name="Path 111" d="M458.8,422.5a5.548,5.548,0,0,1,5.3-.3A5.066,5.066,0,0,1,458.8,422.5Z" fill="#fff" opacity="0.56"/>
  <path id="Path_112" data-name="Path 112" d="M469.9,422.2a5.307,5.307,0,0,1,5.3.4A5.289,5.289,0,0,1,469.9,422.2Z" fill="#fff" opacity="0.45"/>
  <path id="Path_113" data-name="Path 113" d="M0,460.7l.3-.5c2,1,1.2,3.7-.3,4.8Z" fill="#fff" opacity="0.55"/>
  <path id="Path_114" data-name="Path 114" d="M511.7,460.2l.3.5V465C510.5,463.9,509.7,461.2,511.7,460.2Z" fill="#fff" opacity="0.55"/>
  <path id="Path_115" data-name="Path 115" d="M0,470c1.5,1.1,2.3,3.7.3,4.8l-.3-.5Z" fill="#fff" opacity="0.45"/>
  <path id="Path_116" data-name="Path 116" d="M511.7,474.8c-2-1.1-1.2-3.7.3-4.8v4.3Z" fill="#fff" opacity="0.45"/>
  <path id="Path_117" data-name="Path 117" d="M38.2,511.7c1-2,3.7-1.2,4.8.3H38.7Z" fill="#fff" opacity="0.55"/>
  <path id="Path_118" data-name="Path 118" d="M48,512c1.1-1.5,3.8-2.3,4.8-.3l-.5.3Z" fill="#fff" opacity="0.56"/>
  <path id="Path_119" data-name="Path 119" d="M248.2,511.7c1.1-2,3.7-1.2,4.8.3h-4.3Z" fill="#fff" opacity="0.56"/>
  <path id="Path_120" data-name="Path 120" d="M259,512c1.1-1.5,3.8-2.3,4.9-.3l-.6.3Z" fill="#fff" opacity="0.56"/>
  <path id="Path_121" data-name="Path 121" d="M459.2,511.7c1.1-2,3.7-1.2,4.8.3h-4.3Z" fill="#fff" opacity="0.56"/>
  <path id="Path_122" data-name="Path 122" d="M470,512c1.1-1.5,3.8-2.3,4.8-.3l-.5.3Z" fill="#fff" opacity="0.45"/>
</svg>
