<svg xmlns="http://www.w3.org/2000/svg" viewBox="0 0 424.2 512">
  <g id="medal" transform="translate(-43.9)">
    <path id="Path_23" data-name="Path 23" d="M240.9,0h8.7c-3.3.1-6.5.1-9.8.2Z" fill="#fff" opacity="0.61"/>
    <path id="Path_24" data-name="Path 24" d="M249.6,0h16.5c2.6,2.5,4.9,2.7,6.8.7,1.6.1,3.3.3,4.9.4a3.8,3.8,0,0,0,4.4.7c58.6,7.6,112.5,43.9,141.9,95.1,13.3,22.3,21.5,47.3,25.1,72.9a3.827,3.827,0,0,0,.8,4.4c.1,1.8.2,3.7.3,5.5.1,2.9.2,5.7.3,8.6.2,5.8.2,11.7.2,17.5-1.8,2.7-1.9,5.2-.5,7.4-.2,1.2-.4,2.4-.5,3.6a5.029,5.029,0,0,0-.4,5.4c-4.5,31-15.9,61.3-34.8,86.5-1.3,2.3-3.5,4.7-2.8,7.6,1.9,6.3,5,12.1,7.7,18.1,13.3,29.8,26.3,59.7,39.6,89.6,3.7,8.4,8.4,16.6,9,26-.7,8.9-10.3,15.2-18.7,12.5-21.9-6.6-43.3-14.7-65.1-21.8-8.4,18.7-16.1,37.6-24.2,56.4-2.5,6.3-6.7,12.4-13.3,14.9h-6.7c-10.9-4.7-13.6-17.3-18.2-27-13.8-31.7-27.9-63.3-41.9-94.9-1.7,0-5,.2-6.7.3-2.9,0-5.7.1-8.6.2-5.8.1-11.7.2-17.5.1-2.8-.1-5.6-.2-8.4-.4-1.7-.1-5.1-.2-6.8-.3-16.2,36.3-32.3,72.6-48,109a23.082,23.082,0,0,1-12.1,13h-6.8a24.413,24.413,0,0,1-12.3-12.8c-8.5-19.4-16.3-39.1-25.1-58.4-21.7,7.1-43.2,15-65.1,21.7-8.4,2.7-18-3.6-18.7-12.5.7-10.1,6-19,9.9-28.1,15.1-34,30-68,45.1-102,3.5-5-.8-10.1-3.6-14.1-16.4-22.6-26.5-49.3-31.6-76.6a3.779,3.779,0,0,0-.6-4.4,21.116,21.116,0,0,0-.2-2.6,3.649,3.649,0,0,0-.8-4.3c-.1-1.6-.1-3.1-.2-4.7,1.3-2.9,1-5.4-.9-7.4.1-6.6.2-13.1.3-19.6,1.7-2.7,1.8-5.2.4-7.4.1-1.6.3-3.1.5-4.6a3.945,3.945,0,0,0,.6-4.4C66.9,140.3,77.3,111.7,94,87,124.6,40.7,175.7,8.6,230.8,1.7a3.486,3.486,0,0,0,4.3-.7c1.6-.3,3.2-.6,4.7-.8,3.3-.1,6.5-.1,9.8-.2m-8.9,31a38.593,38.593,0,0,0-4.9.6c-.5-1.7-3.7-1.4-3.5.5-70.7,8.6-130.9,69.6-139.2,140.2-1.9-.2-2.2,3.1-.4,3.5a26.476,26.476,0,0,0-.7,4.8c-2.4.3-2.5,4.7-.5,5.6a158.593,158.593,0,0,0,.1,19.5c-1.9,1-2.1,5.4.4,5.6a38.594,38.594,0,0,0,.6,4.9c-1.7.4-1.4,3.7.5,3.4.8,13.3,5.4,25.9,10,38.2,22,56.1,77.4,97.9,137.6,102.2.3,2.3,4.6,2.4,5.5.4a141,141,0,0,0,19.5,0c1,1.9,5.4,2.1,5.6-.4a38.592,38.592,0,0,0,4.9-.6c.4,1.7,3.7,1.4,3.4-.5,13.3-.8,25.9-5.4,38.2-10,43.1-17,77.8-53.3,93.3-96.8,3.7-10.8,7.8-21.9,7.8-33.5,1.9.3,2.2-3,.5-3.4a40.308,40.308,0,0,0,.6-4.7c2.3,0,2.5-4.2.5-4.8a157.074,157.074,0,0,0-.1-19.4c1.9-1,2.1-5.4-.4-5.6a38.591,38.591,0,0,0-.6-4.9c1.7-.5,1.3-3.7-.5-3.5C410.3,98.8,345.5,36,271.3,31.1c-.3-2.4-4.6-2.6-5.5-.5a126.937,126.937,0,0,0-19.5,0c-1-1.9-5.4-2.1-5.6.4M123.2,339.1c-12,27.8-24.7,55.3-36.4,83.2,15.9-3.4,30.6-10.9,46.3-15.1,6.1-1,13.4,1.8,15.9,7.8,7.3,14.4,12.5,29.7,19.6,44.2q16.65-37.95,33.4-75.8c-29.3-8.3-56-24.1-78.8-44.3m265.5,0c-22.8,20.1-49.4,36.1-78.7,44.3q16.65,37.95,33.4,75.8c6.4-13.2,11.5-26.9,17.6-40.2,2.1-3.7,3.4-8.6,7.9-10.2,5.4-3.4,11.9-1.1,17.4.7,13.2,4.5,26.5,8.9,39.6,13.7C413.5,395.1,401.3,367.1,388.7,339.1Z" fill="#fff"/>
    <path id="Path_25" data-name="Path 25" d="M266.1,0h6.4l.4.7C271,2.7,268.7,2.5,266.1,0Z" fill="#fff" opacity="0.48"/>
    <path id="Path_26" data-name="Path 26" d="M230.8,1.7a3.989,3.989,0,0,1,4.3-.7A3.486,3.486,0,0,1,230.8,1.7Z" fill="#fff" opacity="0.56"/>
    <path id="Path_27" data-name="Path 27" d="M277.8,1.1a3.8,3.8,0,0,1,4.4.7A3.8,3.8,0,0,1,277.8,1.1Z" fill="#fff" opacity="0.51"/>
    <path id="Path_28" data-name="Path 28" d="M240.7,31c.2-2.5,4.6-2.3,5.6-.4C244.4,30.8,242.5,30.9,240.7,31Z" fill="#fff" opacity="0.52"/>
    <path id="Path_29" data-name="Path 29" d="M265.8,30.6c.9-2.1,5.2-1.9,5.5.5C269.5,30.9,267.6,30.8,265.8,30.6Z" fill="#fff" opacity="0.52"/>
    <path id="Path_30" data-name="Path 30" d="M232.3,32.1c-.2-1.9,3-2.2,3.5-.5A8.279,8.279,0,0,1,232.3,32.1Z" fill="#fff" opacity="0.51"/>
    <path id="Path_31" data-name="Path 31" d="M246.5,94.5a15.34,15.34,0,0,1,19.2-.2,55.238,55.238,0,0,1,7.5,12.6c6.1,13.1,12.8,25.8,19.1,38.8,5.6.9,11.3,1.6,16.9,3a8.236,8.236,0,0,0,3.5.4,78.406,78.406,0,0,1,16.6,2.5,7.826,7.826,0,0,0,3.4.5c.9.1,2.6.3,3.5.5a10.2,10.2,0,0,0,3.5.4c7.6-.5,15.8,4.7,16.2,12.8.1,1.5.1,3,.1,4.5.5,4.7-4,7.7-6.7,11-11.5,11.5-23.3,22.9-34.6,34.7,2.9,17.1,6.3,34.2,8.6,51.4,1.7,7.2-4,13.6-10.1,16.2-2.8,0-5.6-.1-8.4-.2-16.6-7.6-32.1-17.7-48.8-25-16.8,7.2-32.2,17.4-48.8,25-2.8.1-5.6.2-8.4.1-6.2-2.6-11.8-8.8-10.2-16.1,1.8-17.5,6.3-34.6,8.4-52.1-11.7-11.4-23.1-23.1-34.9-34.5-2.8-2.9-6.4-6-6.1-10.5,0-1.5,0-3,.1-4.5.5-8.4,8.5-13.3,16.2-12.8a10.2,10.2,0,0,0,3.5-.4c.9-.2,2.6-.4,3.5-.5a7.89,7.89,0,0,0,3.4-.6,48.375,48.375,0,0,1,10.6-1.5,10.2,10.2,0,0,0,3.5-.4c.9-.1,2.6-.4,3.5-.5a7.826,7.826,0,0,0,3.4-.5c5.3-1.1,10.7-1.8,16-2.7,6.2-13.1,13-25.9,19.1-39a42.987,42.987,0,0,1,7.7-12.4m-4.7,73.4c-1.9,3.4-6,4.5-9,6.6-.6-1.6-3.6-1-3.4.7a39.073,39.073,0,0,0-9.6,1.4c-.5-1.7-3.7-1.4-3.5.5-4-.1-7.9.6-11.8,1-.5.1-1.6.3-2.1.4,3.5,6.1,9.1,10.5,14.7,14.5,4.8,4.7,11.8,9.4,10.8,17-.7,10.6-3,20.9-4.8,31.3,10.4-4.9,20-11.5,31-15.2,12.4.5,22.2,9.7,33.3,14.4,1.8,2.1,2.7-3.1.2-2.1.4-9.3-3.9-18.1-3.6-27.4-1.6-7,4.7-11.6,8.9-15.9a62.788,62.788,0,0,0,16.6-16.7c-.6-.1-1.7-.2-2.3-.3-1.1,0-3.4,0-4.5.1.2-1.9-3-2.2-3.5-.5-8.2-2.4-17.4-1.7-25.1-5.8-3.2-1.6-4.7-4.9-6.2-7.8-3.9-7.9-7.7-15.8-11.6-23.6C250.6,149.2,247.1,159,241.8,167.9Z" fill="#fff"/>
    <path id="Path_32" data-name="Path 32" d="M200.3,149.1c-.3-1.9,3-2.2,3.4-.5A7.826,7.826,0,0,1,200.3,149.1Z" fill="#fff" opacity="0.53"/>
    <path id="Path_33" data-name="Path 33" d="M309.2,148.7c.5-1.7,3.7-1.5,3.5.4A8.236,8.236,0,0,1,309.2,148.7Z" fill="#fff" opacity="0.46"/>
    <path id="Path_34" data-name="Path 34" d="M193.3,150c-.2-1.9,3.1-2.1,3.5-.4A10.2,10.2,0,0,1,193.3,150Z" fill="#fff" opacity="0.51"/>
    <path id="Path_35" data-name="Path 35" d="M179.3,152.1c-.3-1.9,2.9-2.2,3.4-.6A7.89,7.89,0,0,1,179.3,152.1Z" fill="#fff" opacity="0.47"/>
    <path id="Path_36" data-name="Path 36" d="M329.3,151.6c.4-1.7,3.7-1.4,3.4.5A7.826,7.826,0,0,1,329.3,151.6Z" fill="#fff" opacity="0.53"/>
    <path id="Path_37" data-name="Path 37" d="M172.3,153c-.2-1.9,3.1-2.1,3.5-.4A10.2,10.2,0,0,1,172.3,153Z" fill="#fff" opacity="0.46"/>
    <path id="Path_38" data-name="Path 38" d="M336.2,152.6c.4-1.7,3.7-1.5,3.5.4A10.2,10.2,0,0,1,336.2,152.6Z" fill="#fff" opacity="0.53"/>
    <path id="Path_39" data-name="Path 39" d="M156,170.3c-2.3,0-2.2-4.7.1-4.5C156,167.3,156,168.8,156,170.3Z" fill="#fff" opacity="0.47"/>
    <path id="Path_40" data-name="Path 40" d="M355.9,165.8c2.3-.2,2.4,4.5.1,4.5C356,168.8,356,167.3,355.9,165.8Z" fill="#fff" opacity="0.46"/>
    <path id="Path_41" data-name="Path 41" d="M62.2,174.2a3.945,3.945,0,0,1,.6-4.4A3.945,3.945,0,0,1,62.2,174.2Z" fill="#fff" opacity="0.49"/>
    <path id="Path_42" data-name="Path 42" d="M449.2,169.8a4.186,4.186,0,0,1,.8,4.4A3.827,3.827,0,0,1,449.2,169.8Z" fill="#fff" opacity="0.48"/>
    <path id="Path_43" data-name="Path 43" d="M92.7,175.8c-1.8-.4-1.5-3.7.4-3.5A10.2,10.2,0,0,1,92.7,175.8Z" fill="#fff" opacity="0.49"/>
    <path id="Path_44" data-name="Path 44" d="M418.9,172.3c1.8-.2,2.2,3,.5,3.5A8.279,8.279,0,0,1,418.9,172.3Z" fill="#fff" opacity="0.49"/>
    <path id="Path_45" data-name="Path 45" d="M229.4,175.2c-.2-1.7,2.8-2.3,3.4-.7A5.029,5.029,0,0,1,229.4,175.2Z" fill="#fff" opacity="0.53"/>
    <path id="Path_46" data-name="Path 46" d="M216.3,177.1c-.2-1.9,3-2.2,3.5-.5A8.509,8.509,0,0,1,216.3,177.1Z" fill="#fff" opacity="0.47"/>
    <path id="Path_47" data-name="Path 47" d="M299.2,177.7c.5-1.7,3.7-1.4,3.5.5A8.279,8.279,0,0,1,299.2,177.7Z" fill="#fff" opacity="0.45"/>
    <path id="Path_48" data-name="Path 48" d="M202.4,178.5c.5-.1,1.6-.3,2.1-.4,3,5.9,8.2,10.2,12.6,14.9C211.5,189,205.9,184.6,202.4,178.5Z" fill="#fff" opacity="0.78"/>
    <path id="Path_49" data-name="Path 49" d="M307.2,178.1c.6.1,1.7.2,2.3.3a62.788,62.788,0,0,1-16.6,16.7C298,189.7,303.1,184.3,307.2,178.1Z" fill="#fff" opacity="0.75"/>
    <path id="Path_50" data-name="Path 50" d="M61.3,186.2c-1.5-2.3-1.3-4.8.4-7.4C63.1,181,63,183.5,61.3,186.2Z" fill="#fff" opacity="0.49"/>
    <path id="Path_51" data-name="Path 51" d="M91.5,186.2c-2-.9-1.9-5.3.5-5.6C91.9,182.5,91.7,184.3,91.5,186.2Z" fill="#fff" opacity="0.51"/>
    <path id="Path_52" data-name="Path 52" d="M420,180.7c2.5.2,2.3,4.6.4,5.6C420.2,184.4,420.1,182.5,420,180.7Z" fill="#fff" opacity="0.52"/>
    <path id="Path_53" data-name="Path 53" d="M450.3,179.7c.1,2.9.2,5.7.3,8.6C450.5,185.4,450.4,182.6,450.3,179.7Z" fill="#fff" opacity="0.58"/>
    <path id="Path_54" data-name="Path 54" d="M91.6,205.7c.2,1.8.3,3.7.4,5.6C89.5,211.1,89.7,206.7,91.6,205.7Z" fill="#fff" opacity="0.52"/>
    <path id="Path_55" data-name="Path 55" d="M420,210.5c.1-1.2.3-3.6.5-4.8C422.5,206.3,422.3,210.5,420,210.5Z" fill="#fff" opacity="0.49"/>
    <path id="Path_56" data-name="Path 56" d="M61,205.8c1.9,2,2.2,4.5.9,7.4C60.1,211.2,59.8,208.8,61,205.8Z" fill="#fff" opacity="0.5"/>
    <path id="Path_57" data-name="Path 57" d="M450.3,213.2c-1.4-2.2-1.3-4.7.5-7.4C452.2,208.1,452,210.6,450.3,213.2Z" fill="#fff" opacity="0.49"/>
    <path id="Path_58" data-name="Path 58" d="M418.9,218.6a8.049,8.049,0,0,1,.5-3.4C421.1,215.6,420.8,218.9,418.9,218.6Z" fill="#fff" opacity="0.38"/>
    <path id="Path_59" data-name="Path 59" d="M92.6,216.2a8.049,8.049,0,0,1,.5,3.4C91.2,219.9,90.9,216.6,92.6,216.2Z" fill="#fff" opacity="0.5"/>
    <path id="Path_60" data-name="Path 60" d="M449.4,222.2a5.029,5.029,0,0,1,.4-5.4A5.779,5.779,0,0,1,449.4,222.2Z" fill="#fff" opacity="0.55"/>
    <path id="Path_61" data-name="Path 61" d="M62.1,217.9a3.649,3.649,0,0,1,.8,4.3A3.806,3.806,0,0,1,62.1,217.9Z" fill="#fff" opacity="0.51"/>
    <path id="Path_62" data-name="Path 62" d="M63.1,224.8a3.779,3.779,0,0,1,.6,4.4A3.993,3.993,0,0,1,63.1,224.8Z" fill="#fff" opacity="0.52"/>
    <path id="Path_63" data-name="Path 63" d="M287.6,238.4c2.5-1,1.6,4.2-.2,2.1A14.918,14.918,0,0,1,287.6,238.4Z" fill="#fff" opacity="0.36"/>
    <path id="Path_64" data-name="Path 64" d="M198.8,283.5c2.8.1,5.6,0,8.4-.1A58.884,58.884,0,0,1,198.8,283.5Z" fill="#fff" opacity="0.61"/>
    <path id="Path_65" data-name="Path 65" d="M304.8,283.4c2.8.1,5.6.2,8.4.2A78.519,78.519,0,0,1,304.8,283.4Z" fill="#fff" opacity="0.61"/>
    <path id="Path_66" data-name="Path 66" d="M276.2,359.4a8.049,8.049,0,0,1,3.4-.5C279.9,360.8,276.6,361.1,276.2,359.4Z" fill="#fff" opacity="0.51"/>
    <path id="Path_67" data-name="Path 67" d="M240.7,360a50.859,50.859,0,0,1,5.5.4C245.3,362.4,241,362.3,240.7,360Z" fill="#fff" opacity="0.52"/>
    <path id="Path_68" data-name="Path 68" d="M265.7,360.4c1.8-.2,3.7-.3,5.6-.4C271.1,362.5,266.7,362.3,265.7,360.4Z" fill="#fff" opacity="0.52"/>
    <path id="Path_69" data-name="Path 69" d="M238.8,390.3c2.8.2,5.6.3,8.4.4C244.4,390.6,241.6,390.4,238.8,390.3Z" fill="#fff" opacity="0.54"/>
    <path id="Path_70" data-name="Path 70" d="M264.7,390.6c2.9-.1,5.7-.2,8.6-.2C270.4,390.5,267.6,390.5,264.7,390.6Z" fill="#fff" opacity="0.54"/>
  </g>
</svg>
